<svg width="129" height="109" viewBox="0 0 129 109" fill="none" xmlns="http://www.w3.org/2000/svg">
<path d="M0.5 104.975L16.4993 104.905L32.5015 104.878L64.5 104.829L96.4985 104.878L112.501 104.902L128.5 104.975L112.501 105.045L96.4985 105.071L64.5 105.121L32.5015 105.071L16.4993 105.045L0.5 104.975Z" fill="#263238"/>
<path d="M50.2456 81.6308V81.6717C50.2456 81.6717 50.2456 81.6892 50.2456 81.7009C50.2456 81.7125 50.2456 81.7476 50.2602 81.7797V81.8322C50.2694 81.8696 50.2763 81.9076 50.2806 81.946C50.2806 81.9722 50.2806 81.9985 50.2952 82.0277C50.3098 82.0569 50.3156 82.1502 50.3302 82.2203C50.3448 82.2903 50.374 82.4566 50.3973 82.5967L50.5286 83.3087C50.5432 83.3845 50.5578 83.4662 50.5724 83.5509C50.587 83.6355 50.6133 83.7785 50.6366 83.8981C50.66 84.0177 50.6833 84.1666 50.7096 84.3095C50.7271 84.4087 50.7475 84.5109 50.765 84.6159C50.8204 84.9281 50.8788 85.2608 50.9459 85.6168C50.9473 85.6255 50.9473 85.6343 50.9459 85.643C51.016 86.0399 51.0918 86.4659 51.1735 86.9124C51.194 87.0291 51.2173 87.1458 51.2406 87.2625C51.264 87.3792 51.2873 87.5076 51.3077 87.6302C51.3077 87.7061 51.334 87.7848 51.3515 87.8636C51.4624 88.4842 51.582 89.1417 51.7104 89.8362C51.7542 90.0696 51.7951 90.306 51.8388 90.5452C51.9234 91.0121 52.011 91.4907 52.1014 91.9838C52.1248 92.0976 52.1452 92.2114 52.1627 92.3281C52.2931 93.0421 52.4283 93.7852 52.5683 94.5575C52.5858 94.6363 52.5975 94.715 52.6121 94.7938C52.6792 95.1557 52.7463 95.5204 52.8105 95.8939C52.8191 95.9225 52.825 95.9518 52.828 95.9814L52.9243 96.5125C53.0527 97.2245 53.185 97.953 53.3212 98.6981C53.3562 98.8819 53.3912 99.0687 53.4233 99.2583C53.4904 99.6348 53.5604 100.014 53.6305 100.396C53.718 100.872 53.8055 101.351 53.8931 101.838C53.9806 102.325 54.0682 102.812 54.1586 103.297C54.2053 103.545 54.2491 103.793 54.2958 104.041C54.3483 104.333 54.4037 104.624 54.4562 104.937H79.6734C76.5628 92.013 73.9396 81.5929 73.9396 81.5929L50.2456 81.6308Z" fill="#455A64"/>
<path d="M54.0568 84.5489C55.3193 91.3575 56.5954 98.1661 57.8852 104.975H58.2353C56.896 98.1496 55.5158 91.3361 54.1502 84.5197C54.1298 84.4555 54.0481 84.4818 54.0568 84.5489Z" fill="#37474F"/>
<path d="M50.2485 81.6309C50.2485 81.6309 50.2485 81.6455 50.2485 81.6717C50.2485 81.698 50.2485 81.6892 50.2485 81.7009C50.2485 81.7126 50.2485 81.7476 50.2631 81.7797V81.8322C50.2724 81.8697 50.2792 81.9077 50.2835 81.946C50.2835 81.9723 50.2836 81.9985 50.2981 82.0277C50.3127 82.0569 50.3215 82.1503 50.3332 82.2203C50.3448 82.2903 50.3769 82.4566 50.4003 82.5967C50.4411 82.8039 50.482 83.0402 50.5316 83.3087C50.5462 83.3846 50.5608 83.4663 50.5753 83.5509C50.5899 83.6355 50.6162 83.7785 50.6395 83.8981C50.6629 84.0178 50.6862 84.1666 50.7125 84.3096C50.73 84.4088 50.7504 84.5109 50.7679 84.616C50.8263 84.9282 50.8847 85.2608 50.9488 85.6168C50.9502 85.6255 50.9502 85.6344 50.9488 85.6431C51.0218 86.0399 51.0977 86.4601 51.1794 86.9066C51.2027 87.0233 51.2231 87.1429 51.2436 87.2626C51.264 87.3822 51.2903 87.5077 51.3107 87.6302C51.3282 87.7061 51.3399 87.7849 51.3544 87.8637C51.4682 88.4823 51.5879 89.1417 51.7134 89.8362C51.7571 90.0696 51.798 90.306 51.8417 90.5453C51.9293 91.0122 52.0168 91.4907 52.1044 91.9838C52.1277 92.0976 52.1481 92.2114 52.1656 92.3282C52.2999 93.046 52.4351 93.7891 52.5712 94.5575C52.5888 94.6363 52.6004 94.7151 52.615 94.7939C52.6821 95.1557 52.7492 95.5204 52.8134 95.8939C52.8221 95.9225 52.8279 95.9518 52.8309 95.9815L52.9272 96.5125C53.0576 97.2245 53.1899 97.9531 53.3241 98.6981C53.3591 98.8819 53.3941 99.0687 53.4262 99.2584C53.4962 99.6348 53.5634 100.014 53.6334 100.396C53.7209 100.872 53.8085 101.351 53.896 101.838C53.9835 102.325 54.074 102.812 54.1615 103.297C54.2082 103.545 54.252 103.793 54.2987 104.041C54.3512 104.333 54.4067 104.625 54.4621 104.937H67.1261L68.1387 94.5721L68.1737 94.2044L68.2145 93.8076L68.4129 91.7796L68.5851 90.0288L69.3992 81.6309H50.2485Z" fill="#263238"/>
<path d="M35.9183 104.975H63.1168C63.1635 102.471 63.2131 100.049 63.2743 97.7644C63.2743 97.7089 63.2743 97.6535 63.2743 97.598C63.2743 97.598 66.4491 95.7189 68.159 94.2453C68.4497 94.0062 68.7174 93.7405 68.9586 93.4516C70.0528 92.0568 71.15 86.6936 73.4202 81.6484H40.1552C34.7511 92.1356 35.1304 100.563 35.9183 104.975Z" fill="#455A64"/>
<path d="M69.7522 93.081C68.1327 93.7433 66.6766 94.7617 65.241 95.7451C63.7499 96.7634 62.3814 97.9423 60.9457 99.0366C60.8903 99.0803 60.9457 99.1708 61.0041 99.1299C62.5156 98.1641 64.1001 97.3149 65.597 96.3199C67.0939 95.3249 68.5617 94.4145 69.8251 93.1977C69.8748 93.151 69.8193 93.0518 69.7522 93.081Z" fill="#263238"/>
<path d="M69.9562 83.7231C69.7636 84.759 69.5097 85.7861 69.2879 86.8161C69.0778 87.782 68.9232 88.7653 68.6693 89.7341C68.4609 90.6584 67.9909 91.5032 67.3154 92.1677C66.936 92.5208 66.5188 92.833 66.1132 93.154C65.8972 93.329 65.6609 93.4954 65.4333 93.6734C65.4625 93.5362 65.4887 93.3816 65.5121 93.2561C65.5821 92.8622 65.6463 92.4712 65.7134 92.0889C65.8593 91.2135 66.0052 90.3381 66.1336 89.4627C66.3962 87.744 66.6384 86.0078 67.009 84.3067C67.0129 84.2924 67.0109 84.2771 67.0035 84.2642C66.9961 84.2514 66.9839 84.242 66.9696 84.2381C66.9553 84.2342 66.94 84.2362 66.9272 84.2436C66.9143 84.251 66.9049 84.2632 66.901 84.2775C66.4721 85.9641 65.9994 87.6332 65.6288 89.3343C65.445 90.166 64.7913 94.2949 64.7534 94.5867C64.7155 94.8785 64.698 95.1907 64.6892 95.4913C64.6498 95.7983 64.6498 96.1092 64.6892 96.4163C64.6955 96.4299 64.7056 96.4415 64.7183 96.4496C64.7309 96.4576 64.7457 96.4619 64.7607 96.4619C64.7757 96.4619 64.7904 96.4576 64.8031 96.4496C64.8158 96.4415 64.8259 96.4299 64.8322 96.4163C64.9565 96.1307 65.0447 95.8308 65.0948 95.5234C65.1707 95.2296 65.2349 94.932 65.2874 94.6305C65.3078 94.5254 65.3224 94.4145 65.337 94.3037C65.7426 94.0556 66.1219 93.7201 66.5042 93.4574C66.8864 93.1948 67.3271 92.8738 67.7151 92.547C68.4286 91.9423 68.944 91.1371 69.1946 90.236C69.4435 89.266 69.6056 88.2759 69.6789 87.2772C69.8103 86.11 69.9036 84.9428 70.067 83.7756C70.0729 83.6735 69.9678 83.653 69.9562 83.7231Z" fill="#263238"/>
<path d="M42.2789 90.9362C42.7108 90.7116 44.3945 91.1113 47.4554 90.589C48.0546 90.5115 48.6236 90.2803 49.107 89.9179C49.9065 89.2672 50.5106 88.2196 50.992 87.3238C51.5698 86.3159 52.0132 85.2369 52.311 84.114C52.3255 84.044 52.4248 84.079 52.4131 84.1432C52.2993 84.7764 52.2351 85.4096 52.0688 86.037C51.903 86.6256 51.6913 87.2002 51.4356 87.7556C50.9716 88.7944 50.4318 89.9091 49.5009 90.6123C48.5234 91.3477 47.1666 91.4877 45.976 91.5694C45.2903 91.6161 42.6028 91.5432 42.2439 91.1609C42.2302 91.1444 42.2202 91.1251 42.2144 91.1044C42.2087 91.0836 42.2075 91.0619 42.2108 91.0407C42.2141 91.0194 42.2219 90.9991 42.2336 90.9811C42.2454 90.9631 42.2608 90.9478 42.2789 90.9362Z" fill="#263238"/>
<path d="M63.4089 42.1157C70.0444 45.7981 94.5904 55.2174 100.1 51.8675C104.205 49.3698 103.619 44.0094 100.126 40.5516C97.0882 37.5432 74.328 36.697 67.958 36.5219C61.9032 36.3439 56.9135 38.4974 63.4089 42.1157Z" fill="#AD6359"/>
<path d="M79.7288 50.4231L89.6207 36.8516C89.6207 36.8516 72.5039 35.1854 65.276 35.8098C57.7418 36.4606 56.1982 39.4077 65.2936 43.6008C74.2517 47.7298 79.7288 50.4231 79.7288 50.4231Z" fill="#FFC727"/>
<path d="M78.06 47.8056C78.2585 47.4555 78.5065 47.1316 78.7341 46.8018C78.9617 46.4721 79.2039 46.1249 79.4373 45.7835C79.913 45.0948 80.4003 44.4149 80.8963 43.7409C81.8768 42.3869 82.8514 41.0301 83.8551 39.6937C84.1294 39.326 84.4066 38.9583 84.6926 38.5994C84.9786 38.2405 85.32 37.8612 85.6176 37.4847C85.6351 37.4585 85.6672 37.4847 85.6526 37.5139C85.4192 37.8553 85.2149 38.2172 84.9844 38.5615C84.7539 38.9058 84.5058 39.2647 84.2607 39.609C83.7764 40.2918 83.29 40.9727 82.8018 41.6516C81.8271 42.9764 80.8584 44.307 79.8546 45.6113L79.0113 46.7026C78.7195 47.082 78.4423 47.4876 78.1155 47.8406C78.0805 47.8465 78.0454 47.829 78.06 47.8056Z" fill="#263238"/>
<path d="M71.4449 37.9399C71.2605 38.3315 71.1318 38.747 71.0626 39.1742C71.3436 38.8445 71.5755 38.476 71.7513 38.08C71.9361 37.6886 72.0647 37.2731 72.1335 36.8457C71.8536 37.1762 71.6217 37.5446 71.4449 37.9399ZM75.1711 44.3828C74.7802 44.1967 74.3645 44.068 73.9368 44.0006C74.6086 44.554 75.4133 44.9221 76.2712 45.0686C75.9396 44.788 75.569 44.557 75.1711 44.3828ZM64.9028 39.7608C64.5118 39.5747 64.0961 39.4459 63.6685 39.3785C64.3402 39.9319 65.1449 40.3 66.0028 40.4465C65.6705 40.167 65.3001 39.9361 64.9028 39.7608ZM79.8311 39.078C79.6859 38.6701 79.4835 38.285 79.23 37.9341C79.3089 38.7978 79.6106 39.6263 80.1054 40.3385C80.0759 39.9072 79.9835 39.4825 79.8311 39.078ZM82.8308 44.0385C82.4235 44.1849 82.0385 44.3872 81.687 44.6396C82.5507 44.5607 83.3791 44.2591 84.0914 43.7642C83.6603 43.7951 83.2358 43.8875 82.8308 44.0385Z" fill="white"/>
<path d="M65.2936 43.598C74.2518 47.7269 79.7288 50.4231 79.7288 50.4231L82.8831 46.0812L59.1717 37.9692C58.4918 39.3465 60.2717 41.284 65.2936 43.598Z" fill="#263238"/>
<path d="M86.2096 12.2063C84.3713 9.64726 79.6879 6.07857 75.0104 3.32108C72.7402 1.97589 65.8158 -1.19011 64.6516 0.470219C63.4873 2.13055 65.4277 3.23938 65.4277 3.23938C65.4277 3.23938 62.3026 2.33772 61.2813 4.11477C60.26 5.89182 63.3326 7.51422 63.3326 7.51422C63.3326 7.51422 60.0528 6.82266 59.1628 8.68141C58.2729 10.5402 61.6402 11.6402 61.6402 11.6402C61.6402 11.6402 58.6726 10.8699 58.5793 12.6995C58.4684 14.9055 64.1001 15.7079 66.5337 17.3215C67.0881 17.6863 77.2135 25.5386 77.2135 25.5386L86.2096 12.2063Z" fill="#AD6359"/>
<path d="M61.6814 11.6869C65.822 12.291 67.5174 13.2685 70.66 15.9443C70.7213 15.9968 70.8118 15.918 70.7534 15.8567C67.9259 12.9592 65.9621 11.4214 61.7077 11.4798C61.4918 11.4885 61.4859 11.6607 61.6814 11.6869Z" fill="#263238"/>
<path d="M63.1838 7.44132C67.4294 8.44219 69.2882 9.48391 72.7752 12.0488C72.8219 12.0867 72.889 12.005 72.8423 11.9642C69.6325 9.16585 67.6395 7.67768 63.2655 7.23707C63.07 7.22248 62.9883 7.39755 63.1838 7.44132Z" fill="#263238"/>
<path d="M65.775 3.33865C69.8135 4.60505 71.9028 5.67303 74.9667 8.59101C74.9815 8.6039 75.0005 8.61081 75.0201 8.6104C75.0397 8.60999 75.0585 8.60228 75.0727 8.58879C75.0869 8.57529 75.0956 8.55698 75.097 8.53742C75.0985 8.51787 75.0926 8.49848 75.0805 8.48305C72.2471 5.20032 69.6501 3.86097 65.8246 3.23069C65.5649 3.17816 65.5183 3.25987 65.775 3.33865Z" fill="#263238"/>
<path d="M78.8129 28.0597C78.8129 28.0597 73.6918 26.9304 71.5529 25.9413C69.4141 24.9521 62.799 18.3195 64.15 16.808C65.9008 14.8588 70.4675 17.9343 72.51 19.726C72.51 19.726 76.5398 15.2118 80.2981 16.7088C84.0565 18.2057 78.8129 28.0597 78.8129 28.0597Z" fill="#AD6359"/>
<path d="M64.8066 16.4316C67.6808 15.8013 70.2078 18.3341 72.3204 19.9331C72.3501 19.9586 72.3856 19.9763 72.4238 19.9849C72.462 19.9934 72.5017 19.9925 72.5394 19.9821C72.5771 19.9717 72.6117 19.9523 72.6402 19.9254C72.6686 19.8986 72.6901 19.8651 72.7026 19.8281C74.5176 18.051 77.599 16.0697 80.2339 16.5687C80.2484 16.5703 80.263 16.5667 80.2751 16.5585C80.2872 16.5504 80.296 16.5381 80.2998 16.5241C80.3037 16.51 80.3024 16.495 80.2962 16.4818C80.29 16.4686 80.2793 16.458 80.266 16.452C77.5115 15.5299 74.3279 17.2311 72.4634 19.3058C70.3245 17.6338 67.6779 15.2031 64.7978 16.4053C64.7954 16.4071 64.7936 16.4097 64.7927 16.4126C64.7917 16.4155 64.7918 16.4187 64.7927 16.4216C64.7937 16.4245 64.7956 16.427 64.7981 16.4288C64.8005 16.4306 64.8035 16.4316 64.8066 16.4316Z" fill="#263238"/>
<path d="M102.971 47.1054C102.787 52.775 96.064 52.384 93.1606 49.6878C86.3413 43.3645 76.2888 30.4612 73.5634 22.5068C72.688 19.9478 82.9827 8.70187 84.9844 10.7911C88.5414 14.497 103.344 35.5998 102.971 47.1054Z" fill="#AD6359"/>
<path d="M85.7021 41.6545C86.204 42.1652 86.6855 42.6875 87.1611 43.2157C87.6368 43.7438 88.1153 44.272 88.588 44.803L89.9916 46.4108C90.2221 46.6793 90.4585 46.9448 90.6977 47.2104C90.937 47.4759 91.1734 47.7385 91.4126 48.0041C90.8525 47.56 90.3231 47.0784 89.8282 46.5626C89.3234 46.0578 88.8419 45.5296 88.3692 44.9956C87.8965 44.4616 87.4354 43.9189 86.9919 43.3586C86.5484 42.7984 86.1136 42.2381 85.7021 41.6545Z" fill="#263238"/>
<path d="M88.5615 44.9869C88.8008 45.3312 89.008 45.6668 89.2152 46.0111C89.3144 46.1832 89.4165 46.3554 89.507 46.5334C89.6052 46.7145 89.6919 46.9016 89.7666 47.0937C89.4401 46.8365 89.1666 46.5184 88.9613 46.157C88.8555 45.9795 88.7657 45.793 88.6928 45.5997C88.6169 45.4036 88.5726 45.1968 88.5615 44.9869Z" fill="#263238"/>
<path d="M76.446 87.2217H37.0708C37.0708 87.2217 43.0848 49.6615 57.5929 36.8165C59.3846 35.2292 63.4289 35.591 66.0551 36.9012C66.9976 37.371 70.3795 42.101 71.3454 46.5772C72.3112 51.0533 76.551 87.0875 76.446 87.2217Z" fill="#FFC727"/>
<path d="M53.0588 47.651C52.6507 47.7956 52.2655 47.998 51.915 48.2521C52.78 48.1689 53.6086 47.8622 54.3194 47.3621C53.8876 47.3977 53.463 47.495 53.0588 47.651ZM72.2124 52.028C72.1952 52.0387 72.1787 52.0504 72.1628 52.063H72.2153C72.2153 52.063 72.2124 52.0251 72.2124 52.0163V52.028ZM61.982 57.9515C61.5747 58.0979 61.1897 58.3002 60.8382 58.5526C61.7032 58.4693 62.5318 58.1626 63.2426 57.6626C62.8113 57.6944 62.3868 57.7878 61.982 57.9398V57.9515ZM56.6217 74.2513C56.2135 74.3969 55.8283 74.6003 55.4778 74.8553C55.9098 74.8188 56.3343 74.7205 56.7384 74.5635C57.1463 74.4173 57.5314 74.2139 57.8822 73.9595C57.4503 73.996 57.0258 74.0943 56.6217 74.2513ZM47.6139 62.8712C47.2066 63.0176 46.8216 63.2199 46.47 63.4723C47.3351 63.389 48.1637 63.0824 48.8744 62.5823C48.4461 62.6218 48.0256 62.722 47.6255 62.8799L47.6139 62.8712ZM39.5369 85.5555C39.1291 85.7008 38.744 85.9031 38.3931 86.1566C39.2588 86.0741 40.0878 85.7663 40.7975 85.2637C40.369 85.3042 39.9485 85.4054 39.5486 85.5643L39.5369 85.5555ZM56.9251 84.1345C56.5173 84.2797 56.1322 84.4821 55.7813 84.7356C56.647 84.6531 57.476 84.3452 58.1857 83.8427C57.757 83.8818 57.3363 83.983 56.9368 84.1432L56.9251 84.1345ZM76.2976 85.7335C76.0184 85.789 75.7442 85.8671 75.4776 85.967C75.0701 86.1128 74.685 86.3151 74.3338 86.5681C74.7657 86.5313 75.1902 86.433 75.5944 86.2763C75.8449 86.1823 76.0886 86.0711 76.3239 85.9436C76.3268 85.8882 76.3209 85.8152 76.3093 85.7423L76.2976 85.7335ZM68.1594 73.799C67.7515 73.9442 67.3664 74.1466 67.0155 74.4001C67.8806 74.3169 68.7091 74.0102 69.4199 73.5101C68.9914 73.5482 68.5707 73.6485 68.171 73.8078L68.1594 73.799ZM57.1148 41.5729C56.9696 41.165 56.7672 40.7799 56.5137 40.429C56.5969 41.2941 56.9036 42.1226 57.4037 42.8334C57.3695 42.4014 57.2722 41.9767 57.1148 41.5729ZM48.4513 85.6285C48.3067 85.2204 48.1043 84.8352 47.8502 84.4846C47.9353 85.348 48.243 86.1744 48.7431 86.8832C48.7074 86.453 48.6091 86.0303 48.4513 85.6285ZM46.7239 74.6598C46.5773 74.2524 46.3729 73.8681 46.117 73.5189C46.1538 73.9499 46.252 74.3734 46.4088 74.7765C46.5538 75.185 46.7572 75.5703 47.0128 75.9204C46.9772 75.4885 46.8799 75.064 46.7239 74.6598ZM61.7019 68.141C61.5561 67.7335 61.3537 67.3484 61.1008 66.9972C61.184 67.8623 61.4907 68.6908 61.9907 69.4016C61.9552 68.9698 61.8579 68.5453 61.7019 68.141ZM56.4028 54.0793C56.2566 53.6714 56.0532 53.2863 55.7988 52.9355C55.8813 53.8012 56.1892 54.6302 56.6917 55.3399C56.6561 54.908 56.5588 54.4835 56.4028 54.0793ZM63.6569 86.1771C63.6841 86.5381 63.7577 86.8941 63.8758 87.2363H64.2259C64.0853 86.8544 63.8939 86.4933 63.6569 86.1625V86.1771ZM74.8123 78.0067C74.6673 77.5983 74.4639 77.213 74.2083 76.8629C74.2466 77.2936 74.3448 77.7169 74.5001 78.1205C74.6451 78.529 74.8486 78.9143 75.1041 79.2644C75.0687 78.8294 74.9705 78.4018 74.8123 77.9951V78.0067ZM68.0018 46.049C67.8561 45.6418 67.6527 45.2575 67.3978 44.9081C67.4361 45.3389 67.5343 45.7622 67.6896 46.1658C67.8322 46.5747 68.0348 46.9602 68.2907 47.3096C68.2551 46.8778 68.1578 46.4533 68.0018 46.049ZM64.9087 39.7608C64.5178 39.5747 64.1021 39.446 63.6744 39.3785C64.3462 39.9319 65.1509 40.3001 66.0088 40.4465C65.6747 40.1665 65.3023 39.9356 64.9029 39.7608H64.9087ZM52.02 69.2499C51.6294 69.0624 51.2136 68.9327 50.7857 68.8647C51.1165 69.1457 51.486 69.3776 51.8829 69.5533C52.2743 69.7381 52.6898 69.8668 53.1172 69.9356C52.7863 69.6555 52.4168 69.4245 52.02 69.2499ZM41.8392 79.5066C41.4483 79.3205 41.0326 79.1917 40.6049 79.1243C41.2766 79.6777 42.0814 80.0459 42.9393 80.1923C42.6077 79.9118 42.2371 79.6808 41.8392 79.5066ZM68.457 82.0627C68.0661 81.8766 67.6504 81.7479 67.2227 81.6805C67.8944 82.2338 68.6992 82.602 69.5571 82.7484C69.2247 82.4689 68.8543 82.238 68.457 82.0627ZM67.6108 65.795C67.2197 65.6093 66.804 65.4806 66.3765 65.4127C66.7056 65.6938 67.0743 65.9249 67.4707 66.0985C67.862 66.2842 68.2775 66.4139 68.705 66.4836C68.3753 66.2027 68.0067 65.9707 67.6108 65.795ZM64.9029 51.9871C64.512 51.801 64.0963 51.6723 63.6686 51.6049C64.3403 52.1582 65.1451 52.5264 66.003 52.6728C65.6713 52.3923 65.3008 52.1613 64.9029 51.9871ZM48.6789 55.8126C48.4924 56.2033 48.3637 56.6191 48.2967 57.0469C48.849 56.3745 49.2171 55.5701 49.3647 54.7125C49.0843 55.0443 48.8534 55.4148 48.6789 55.8126ZM61.7544 78.4794C61.5677 78.8704 61.438 79.286 61.3692 79.7137C61.6502 79.384 61.8821 79.0155 62.0579 78.6195C62.2427 78.2281 62.3714 77.8126 62.4401 77.3852C62.1607 77.7155 61.9298 78.0839 61.7544 78.4794ZM69.7526 58.4709C69.5665 58.8628 69.4377 59.2795 69.3703 59.7081C69.6498 59.3768 69.8807 59.0073 70.056 58.6109C70.2421 58.22 70.3709 57.8043 70.4383 57.3766C70.1589 57.7069 69.9279 58.0754 69.7526 58.4709ZM51.8654 79.6466C51.6793 80.0376 51.5505 80.4533 51.4831 80.8809C52.0355 80.2085 52.4035 79.4041 52.5511 78.5466C52.2718 78.8791 52.0409 79.2494 51.8654 79.6466ZM41.6174 68.6867C41.4313 69.0786 41.3026 69.4953 41.2352 69.9239C41.5147 69.5926 41.7456 69.2232 41.9209 68.8268C42.107 68.4359 42.2357 68.0201 42.3032 67.5925C42.0247 67.9235 41.7939 68.2918 41.6174 68.6867ZM55.5595 62.559C55.3721 62.9504 55.2433 63.3673 55.1773 63.7962C55.4557 63.4641 55.6864 63.0948 55.863 62.699C56.0478 62.3076 56.1765 61.8921 56.2453 61.4647C55.9651 61.7977 55.7342 62.1691 55.5595 62.5677V62.559ZM60.6864 46.5626C60.502 46.9542 60.3733 47.3696 60.3042 47.7969C60.5851 47.4672 60.8171 47.0986 60.9928 46.7027C61.1776 46.3112 61.3063 45.8957 61.3751 45.4684C61.0944 45.8015 60.8625 46.1729 60.6864 46.5714V46.5626Z" fill="white"/>
<path d="M50.8557 88.5727C50.8557 86.3697 51.4947 73.0579 51.1154 68.6926C50.987 67.2336 56.0409 50.9133 57.3453 45.4334C58.5708 40.2919 55.9534 38.0217 52.1104 42.8626C48.9152 46.8894 40.564 62.6144 38.8774 66.8134C37.1908 71.0124 35.4342 85.1587 35.4459 88.1496C35.4575 90.5161 50.8469 90.7496 50.8557 88.5727Z" fill="#AD6359"/>
<path d="M52.5359 107.528C51.0214 108.29 49.7959 107.032 49.7959 107.032C49.3567 107.754 48.6784 108.299 47.8788 108.573C46.449 108.987 45.168 106.924 45.168 106.924C44.5561 107.578 43.7606 108.032 42.8861 108.225C41.4767 108.485 39.8923 106.588 39.8923 106.588C38.9981 106.878 38.0294 106.835 37.164 106.469C34.8909 105.398 34.4386 101.59 34.1264 99.1737C33.8141 96.7577 35.3665 88.9054 35.4891 87.5164L50.823 86.0574C50.823 86.0574 55.3109 96.5067 55.2729 99.4013C55.2321 101.852 54.2254 106.67 52.5359 107.528Z" fill="#AD6359"/>
<path d="M49.8518 106.973C50.5054 104.385 50.3624 101.747 50.3653 99.0949C50.3628 99.0849 50.3569 99.076 50.3487 99.0696C50.3405 99.0633 50.3305 99.0598 50.3201 99.0598C50.3097 99.0598 50.2997 99.0633 50.2915 99.0696C50.2833 99.076 50.2774 99.0849 50.2749 99.0949C50.3011 101.721 49.8051 104.321 49.7263 106.944C49.7224 106.961 49.7253 106.978 49.7343 106.993C49.7434 107.007 49.7578 107.018 49.7744 107.022C49.7911 107.025 49.8086 107.023 49.8231 107.014C49.8376 107.005 49.8479 106.99 49.8518 106.973Z" fill="#263238"/>
<path d="M45.3553 106.848C45.4452 106.246 45.458 105.635 45.3932 105.03C45.3612 104.385 45.3174 103.743 45.2649 103.098C45.1618 101.815 45.0256 100.532 44.8563 99.2497C44.8563 99.1942 44.76 99.1913 44.7659 99.2497C44.868 100.531 44.9497 101.815 44.9964 103.098C45.0227 103.743 45.0402 104.385 45.0548 105.03C45.0283 105.638 45.0694 106.247 45.1773 106.845C45.183 106.864 45.1946 106.881 45.2104 106.893C45.2262 106.905 45.2454 106.911 45.2652 106.912C45.2851 106.912 45.3045 106.906 45.3207 106.895C45.3369 106.883 45.349 106.867 45.3553 106.848Z" fill="#263238"/>
<path d="M39.878 106.533C40.0123 106.028 39.878 105.412 39.8226 104.896C39.7642 104.312 39.7059 103.729 39.6534 103.145C39.5454 101.978 39.4403 100.811 39.3762 99.6436C39.3762 99.5852 39.2799 99.5852 39.2828 99.6436C39.3441 100.834 39.3878 102.03 39.4608 103.221C39.4958 103.805 39.5337 104.388 39.5746 104.972C39.6096 105.471 39.5979 106.095 39.8197 106.553C39.8314 106.568 39.8693 106.559 39.878 106.533Z" fill="#263238"/>
<path d="M54.2023 62.2905L38.3022 62.343C38.3022 62.343 46.9891 47.5022 51.7249 42.0135C56.668 36.2913 59.9624 36.7611 58.0249 46.5947C56.1253 56.2736 54.2023 62.2905 54.2023 62.2905Z" fill="#FFC727"/>
<path d="M48.6787 55.8126C48.4922 56.2033 48.3634 56.6191 48.2965 57.0469C48.8488 56.3745 49.2168 55.5701 49.3645 54.7125C49.0841 55.0443 48.8532 55.4148 48.6787 55.8126ZM51.0481 42.8393L50.8847 43.0406C51.0907 43.1097 51.3027 43.1596 51.5179 43.1894C51.3719 43.0591 51.2147 42.9419 51.0481 42.8393ZM45.965 51.0096C45.888 50.8044 45.7993 50.6037 45.6995 50.4085L45.5127 50.7003C45.5536 50.8462 45.6003 50.9921 45.6499 51.1292C45.7955 51.5374 45.9989 51.9226 46.2539 52.2731C46.2203 51.8343 46.1229 51.4028 45.965 50.9921V51.0096ZM56.4026 54.091C56.2564 53.6831 56.053 53.2979 55.7986 52.9471C55.8351 53.3791 55.9334 53.8036 56.0904 54.2077C56.1488 54.3565 56.21 54.4995 56.2742 54.6483C56.318 54.4674 56.3618 54.2865 56.4085 54.0997L56.4026 54.091ZM57.1146 41.5845C56.9694 41.1767 56.767 40.7916 56.5135 40.4407C56.5967 41.3057 56.9034 42.1343 57.4035 42.8451C57.3704 42.4091 57.2731 41.9804 57.1146 41.5729V41.5845ZM41.1766 58.8414C40.7743 58.9833 40.3934 59.1797 40.0444 59.425C40.9074 59.3404 41.7337 59.0338 42.443 58.5351C42.0089 58.5719 41.5824 58.6712 41.1766 58.8298V58.8414ZM53.0586 47.6627C52.6505 47.8073 52.2653 48.0097 51.9148 48.2638C52.7798 48.1805 53.6084 47.8738 54.3192 47.3738C53.8879 47.4056 53.4634 47.499 53.0586 47.651V47.6627Z" fill="white"/>
<path d="M40.9081 59.7811C41.3079 59.7373 41.7164 59.749 42.1162 59.7431L43.3534 59.7198C44.1909 59.7023 45.0283 59.6994 45.8629 59.7023C47.5349 59.7023 49.2069 59.7023 50.8759 59.7344C51.337 59.7344 51.7951 59.7548 52.2532 59.7752C52.7114 59.7957 53.2191 59.854 53.7122 59.8744C53.7414 59.8744 53.7356 59.9182 53.7122 59.9211C53.2979 59.9211 52.8835 59.9766 52.4692 59.9912C52.0548 60.0057 51.62 60.0145 51.194 60.0174C50.3595 60.0174 49.5249 60.0174 48.6875 60.0174C47.0417 60.0028 45.396 59.9941 43.7502 59.9416L42.373 59.8949C41.8944 59.8803 41.4013 59.8949 40.914 59.8307C40.8877 59.8219 40.8819 59.784 40.9081 59.7811Z" fill="#263238"/>
<path d="M56.3298 54.9168C56.671 54.4 56.9097 53.8224 57.033 53.2156C57.033 53.2156 57.0155 53.201 57.0126 53.2156C56.8417 53.7376 56.6269 54.2442 56.3706 54.73L56.5195 54.0735C56.6945 53.2769 56.8725 52.4861 57.0097 51.6836C57.0097 51.6836 56.9922 51.6632 56.9893 51.6836C56.5895 53.0434 56.251 54.4265 55.8833 55.798C55.5157 57.1694 55.1422 58.5788 54.7774 59.9707C54.5761 60.7323 54.3747 61.491 54.1938 62.2526C53.9341 62.2759 53.7328 62.2671 53.5023 62.2876C53.441 62.2876 53.4352 62.3985 53.5023 62.4043C53.7939 62.4273 54.087 62.4224 54.3777 62.3897C55.1626 59.9357 55.7637 57.4262 56.3298 54.9168Z" fill="#263238"/>
<path d="M56.5949 38.9262C57.7099 40.9888 59.3406 42.7271 61.3279 43.9714C62.2776 44.599 63.3687 44.9801 64.5027 45.0802C65.0923 45.1404 65.686 45.0149 66.2009 44.7213C66.6784 44.375 67.0575 43.9104 67.301 43.3732C67.5967 42.7647 67.8002 42.1157 67.905 41.4473C68.0359 40.6912 68.113 39.9267 68.1355 39.1596C68.1355 39.1304 68.1793 39.1363 68.1764 39.1596C68.156 39.8862 68.1939 40.6186 68.118 41.3364C68.0645 41.9746 67.9291 42.6032 67.7153 43.2069C67.5102 43.7782 67.1859 44.2994 66.7641 44.7359C66.3205 45.1648 65.7373 45.4196 65.1213 45.4537C63.9132 45.5123 62.7147 45.2139 61.6751 44.5958C60.623 44.0105 59.6681 43.2653 58.8447 42.3869C57.8934 41.3737 57.1129 40.2129 56.5337 38.9495C56.5299 38.9453 56.5273 38.9402 56.5259 38.9347C56.5246 38.9292 56.5246 38.9235 56.5259 38.918C56.5273 38.9125 56.5299 38.9074 56.5337 38.9032C56.5374 38.8989 56.5422 38.8957 56.5475 38.8937C56.5527 38.8916 56.5584 38.8909 56.5641 38.8916C56.5697 38.8923 56.575 38.8943 56.5797 38.8975C56.5844 38.9007 56.5882 38.905 56.5909 38.91C56.5935 38.915 56.5949 38.9205 56.5949 38.9262Z" fill="#263238"/>
<path d="M65.501 43.4696C63.2541 44.0969 59.2215 40.7879 57.5699 38.0392C57.459 37.8495 57.672 35.8099 57.815 33.315C57.8938 31.8006 57.9492 30.1052 57.888 28.5704C57.8734 28.2552 67.6603 30.5342 67.6603 30.5342C67.6603 30.5342 66.8374 33.8052 66.9629 36.4956C66.9738 36.708 67.0041 36.919 67.0533 37.1259C67.0533 37.1551 67.0679 37.1901 67.0738 37.2309C67.316 38.4273 67.6719 42.8626 65.501 43.4696Z" fill="#AD6359"/>
<path d="M66.0815 37.3214C66.4131 37.3187 66.744 37.2885 67.0706 37.231C67.0672 37.1956 67.0613 37.1605 67.0531 37.1259C67.0024 36.9193 66.9721 36.7082 66.9627 36.4956C66.8401 33.8082 67.6572 30.5342 67.6572 30.5342C67.6572 30.5342 59.7144 28.6842 58.1504 28.5471C58.521 30.3183 60.3681 37.4265 66.0815 37.3214Z" fill="#263238"/>
<path d="M58.591 15.1418C56.8402 18.2757 56.4959 28.3544 58.4101 31.036C61.188 34.9228 66.7876 36.4576 70.3563 32.8773C73.8141 29.399 74.0271 16.2681 71.7948 13.7207C68.4917 9.97114 61.1851 10.5139 58.591 15.1418Z" fill="#AD6359"/>
<path d="M70.1783 16.2273C69.765 16.73 69.2302 17.1187 68.6246 17.3567C68.0189 17.5947 67.3625 17.674 66.7176 17.5871C65.4395 17.4032 64.1585 16.5483 63.6799 15.3198C63.6759 15.3136 63.6698 15.3091 63.6628 15.3069C63.6557 15.3047 63.6481 15.305 63.6413 15.3077C63.6344 15.3105 63.6287 15.3155 63.6251 15.3219C63.6215 15.3284 63.6203 15.3359 63.6216 15.3431C64.1352 16.6533 65.2265 17.7213 66.6709 17.8934C67.3559 17.9624 68.047 17.8505 68.6753 17.5689C69.3035 17.2873 69.8469 16.8458 70.2512 16.2886C70.2862 16.239 70.2162 16.1806 70.1783 16.2273Z" fill="#263238"/>
<path d="M66.3877 8.06277C64.8003 7.63674 63.0612 8.40125 62.1216 9.70559C61.5802 10.4928 61.2469 11.4043 61.1528 12.3551C61.1549 12.3616 61.1589 12.3673 61.1645 12.3714C61.17 12.3755 61.1766 12.3776 61.1835 12.3776C61.1903 12.3776 61.197 12.3755 61.2025 12.3714C61.208 12.3673 61.2121 12.3616 61.2141 12.3551C61.4855 10.8582 62.4222 9.34376 63.814 8.66095C64.4477 8.32341 65.1709 8.19203 65.8828 8.28514C66.5947 8.37825 67.2598 8.6912 67.7854 9.18035C68.3664 9.72721 68.7431 10.4561 68.8534 11.2463C68.8581 11.2622 68.8683 11.276 68.8823 11.2851C68.8962 11.2941 68.9129 11.298 68.9294 11.2959C68.9459 11.2938 68.9611 11.2859 68.9723 11.2736C68.9835 11.2613 68.99 11.2454 68.9905 11.2288C68.9341 10.4977 68.6541 9.80167 68.1884 9.23526C67.7228 8.66885 67.0941 8.25948 66.3877 8.06277Z" fill="#263238"/>
<path d="M78.3199 11.7249C77.9608 10.698 77.2482 9.83229 76.3095 9.28252C75.011 8.51217 73.5637 8.65807 72.128 8.83023C72.1215 8.83227 72.1158 8.83634 72.1117 8.84186C72.1077 8.84737 72.1055 8.85403 72.1055 8.86087C72.1055 8.86771 72.1077 8.87437 72.1117 8.87989C72.1158 8.8854 72.1215 8.88947 72.128 8.89151C73.3506 8.74853 74.5995 8.67266 75.7375 9.22999C76.6788 9.68355 77.4344 10.4484 77.8764 11.3951C78.2998 12.3694 78.3583 13.4635 78.0411 14.4773C77.7238 15.4911 77.0522 16.3568 76.149 16.9159C75.6202 17.2243 75.0339 17.4212 74.4262 17.4945C73.8185 17.5678 73.2022 17.5159 72.6153 17.342C72.5715 17.342 72.5365 17.3974 72.5861 17.412C73.3802 17.6803 74.2333 17.722 75.0497 17.5326C75.8662 17.3431 76.6137 16.9299 77.2085 16.3394C77.8032 15.7489 78.2217 15.0043 78.417 14.1893C78.6123 13.3742 78.5767 12.5208 78.3141 11.7249H78.3199Z" fill="#263238"/>
<path d="M58.0249 16.4958C58.0249 16.4958 58.2 13.4173 58.9966 12.4748C59.7932 11.5323 61.5557 11.3076 61.5557 11.3076C61.5557 11.3076 62.5828 8.70185 65.0572 8.52677C67.2866 8.3692 68.7981 10.3359 68.7981 10.3359C68.7981 10.3359 71.8795 7.26912 75.4073 9.00532C78.7571 10.654 78.3253 15.7517 75.1009 17.3858C72.8249 18.5296 69.6881 16.5483 69.6881 16.5483C69.3963 16.5921 66.3528 18.4829 64.0009 15.7809C64.0009 15.7809 61.9146 17.4149 60.7094 16.274C60.7065 16.2682 59.1133 17.0443 58.0249 16.4958Z" fill="#263238"/>
<path opacity="0.2" d="M60.5458 12.9271C60.4379 14.4502 60.0877 18.7864 59.5333 19.7376C58.9789 20.6889 57.657 23.1779 57.1201 23.353C57.1785 20.0761 57.7037 16.7234 58.5791 15.1418C59.0721 14.2738 59.7422 13.5192 60.5458 12.9271Z" fill="#263238"/>
<path d="M58.5244 23.2976C58.5244 23.2976 56.9428 19.7172 55.3583 20.2221C53.7739 20.7269 54.5326 25.6145 56.0878 26.5687C56.2793 26.703 56.4958 26.7977 56.7245 26.847C56.9532 26.8963 57.1894 26.8993 57.4192 26.8557C57.6491 26.8122 57.8679 26.7231 58.0627 26.5936C58.2575 26.4641 58.4244 26.2969 58.5535 26.1018L58.5244 23.2976Z" fill="#AD6359"/>
<path d="M55.6117 21.6168C55.5855 21.6168 55.5709 21.6459 55.5942 21.6605C56.6739 22.3667 57.0795 23.5806 57.2896 24.7974C57.0269 24.2925 56.598 23.9599 55.9327 24.2604C55.8977 24.278 55.9327 24.3305 55.9531 24.3305C56.1714 24.3041 56.3924 24.346 56.5858 24.4506C56.7792 24.5551 56.9353 24.717 57.0328 24.9141C57.1947 25.2475 57.319 25.5978 57.4034 25.9587C57.4384 26.0725 57.6368 26.055 57.6222 25.9266C57.6236 25.9169 57.6236 25.9071 57.6222 25.8974C57.9432 24.4122 57.2049 22.0836 55.6117 21.6168Z" fill="#263238"/>
<path d="M65.5509 23.1254C65.5509 23.0991 65.4955 23.1546 65.4955 23.1838C65.4955 23.8636 65.3729 24.6427 64.7485 24.8441C64.731 24.8441 64.731 24.882 64.7485 24.882C65.5072 24.8032 65.6676 23.7703 65.5509 23.1254Z" fill="#263238"/>
<path d="M64.9698 22.3959C63.8814 22.2733 63.7121 24.4589 64.7218 24.5727C65.7314 24.6865 65.8831 22.498 64.9698 22.3959Z" fill="#263238"/>
<path d="M69.8079 23.4143C69.8079 23.388 69.8604 23.4493 69.8575 23.4756C69.7816 24.1525 69.8108 24.9346 70.4061 25.2264C70.4265 25.2264 70.4207 25.2672 70.4061 25.2614C69.6591 25.0863 69.6299 24.0417 69.8079 23.4143Z" fill="#263238"/>
<path d="M70.467 22.7519C71.5642 22.7519 71.4795 24.9462 70.467 24.9433C69.4545 24.9404 69.5478 22.7519 70.467 22.7519Z" fill="#263238"/>
<path d="M63.8813 21.0361C64.1381 20.8669 64.4036 20.7443 64.675 20.6101C64.9323 20.417 65.2462 20.3144 65.5679 20.3183C65.668 20.3406 65.758 20.3953 65.8239 20.4739C65.8898 20.5525 65.928 20.6506 65.9326 20.7531C65.9326 21.1908 65.6 21.4826 65.2381 21.6897C64.8811 21.9107 64.4546 21.9908 64.0418 21.9144C63.952 21.8895 63.871 21.8398 63.8081 21.7711C63.7453 21.7023 63.7031 21.6172 63.6863 21.5255C63.6696 21.4339 63.679 21.3394 63.7134 21.2528C63.7479 21.1662 63.8061 21.0911 63.8813 21.0361Z" fill="#263238"/>
<path d="M71.827 21.9057C71.6015 21.706 71.3658 21.518 71.1209 21.3425C70.9007 21.1111 70.6105 20.9583 70.2951 20.9077C70.1925 20.9115 70.094 20.949 70.0149 21.0144C69.9358 21.0798 69.8804 21.1695 69.8574 21.2695C69.7874 21.7014 70.0558 22.0457 70.3739 22.3142C70.6848 22.596 71.0894 22.752 71.509 22.7519C71.6048 22.7469 71.6971 22.7141 71.7746 22.6574C71.852 22.6008 71.9113 22.5227 71.9451 22.4329C71.9788 22.3431 71.9856 22.2453 71.9647 22.1517C71.9437 22.058 71.8959 21.9725 71.827 21.9057Z" fill="#263238"/>
<path d="M65.7925 28.4186C66.6679 28.1269 67.7709 28.3282 68.4654 28.4653C68.5442 28.4653 68.6259 28.3078 68.6434 28.2377C68.6434 28.2115 68.7017 26.8021 68.7017 26.8021C68.8827 26.9101 69.8135 27.409 69.8164 27.1377C69.8397 24.8996 69.866 22.4105 69.4166 20.1783C69.4166 20.162 69.4102 20.1464 69.3987 20.135C69.3872 20.1235 69.3716 20.117 69.3554 20.117C69.3391 20.117 69.3235 20.1235 69.312 20.135C69.3005 20.1464 69.2941 20.162 69.2941 20.1783C69.1861 22.3288 69.4575 24.4852 69.3816 26.6445C69.0523 26.4619 68.6986 26.3273 68.3312 26.2448C68.2553 26.2593 68.3487 27.765 68.3049 27.9955C68.3049 27.9955 66.9685 27.4878 65.8013 28.121C65.5007 28.2873 65.3752 28.5529 65.7925 28.4186Z" fill="#263238"/>
<path d="M64.3513 29.3231C64.503 29.4924 64.6431 29.7171 64.8911 29.755C65.1412 29.767 65.3909 29.7252 65.6235 29.6325C65.6285 29.63 65.6342 29.6295 65.6396 29.6309C65.645 29.6323 65.6497 29.6356 65.6529 29.6402C65.656 29.6447 65.6575 29.6503 65.6569 29.6559C65.6563 29.6614 65.6538 29.6665 65.6498 29.6704C65.5435 29.7931 65.4061 29.885 65.2521 29.9363C65.098 29.9876 64.933 29.9966 64.7744 29.9622C64.6397 29.918 64.5211 29.8348 64.4338 29.7231C64.3465 29.6114 64.2944 29.4762 64.2841 29.3348C64.2783 29.3115 64.3308 29.2998 64.3513 29.3231Z" fill="#263238"/>
<path d="M61.3168 21.5672C60.3918 21.5672 60.8878 19.8164 61.0833 19.2123C61.2188 18.5669 61.297 17.9107 61.3168 17.2515C61.3364 17.9112 61.4175 18.5677 61.559 19.2123C61.7516 19.8193 62.2476 21.5672 61.3168 21.5672Z" fill="white"/>
<path d="M72.895 26.2943C72.968 25.4919 73.0234 24.6923 73.0584 23.8899C73.0934 23.0874 73.1197 22.2879 73.1139 21.4855C73.108 20.683 73.0964 19.8864 73.0584 19.084C73.0584 18.6842 73.0176 18.2844 72.9855 17.8847C72.9534 17.4849 72.9154 17.0822 72.895 16.6796C73.0754 17.4661 73.205 18.2633 73.2831 19.0665C73.3677 19.871 73.4086 20.6795 73.4057 21.4884C73.4056 22.2963 73.3647 23.1036 73.2831 23.9074C73.2393 24.3072 73.1897 24.7069 73.1314 25.1067C73.073 25.5064 72.9942 25.8975 72.895 26.2943Z" fill="#263238"/>
<path d="M55.0986 108.322C55.1191 108.441 55.1424 108.561 55.1657 108.683C55.1453 108.564 55.122 108.441 55.1015 108.322H55.0986Z" fill="#EBEBEB"/>
<path d="M53.9169 13.642C54.7159 12.4619 55.1493 11.0724 55.1629 9.64727C55.1629 4.57291 49.5924 0.458557 42.7235 0.458557C35.8546 0.458557 30.2871 4.57291 30.2871 9.64727C30.2871 14.7216 35.8546 18.8331 42.7235 18.8331C46.0529 18.8331 49.073 17.8701 51.3024 16.2915L55.5889 17.3799L53.9169 13.642Z" fill="white"/>
<path d="M53.9164 13.642C54.6451 12.5081 55.0488 11.196 55.0836 9.84863C55.1007 8.51009 54.7363 7.19434 54.0331 6.05526C53.3302 4.92629 52.4037 3.95312 51.3106 3.19564C50.2215 2.43526 49.0231 1.84492 47.7565 1.44486C46.4909 1.03973 45.1791 0.796571 43.8523 0.721199C42.5283 0.63876 41.1991 0.7132 39.8926 0.942966C38.588 1.16564 37.3203 1.56724 36.1255 2.13642C34.9352 2.69418 33.8495 3.4522 32.9157 4.37743C31.9825 5.29021 31.2863 6.4171 30.8877 7.66015C30.4981 8.89914 30.4809 10.2252 30.8381 11.4739C31.2097 12.7304 31.8852 13.8759 32.8048 14.8092C33.7303 15.7472 34.8101 16.519 35.9971 17.0911C37.1897 17.664 38.4537 18.0742 39.7555 18.3108C41.0608 18.559 42.3912 18.6491 43.7181 18.5792C46.392 18.4786 48.987 17.6459 51.2202 16.1719L51.2727 16.134L51.3311 16.1515L55.6001 17.3011L55.5184 17.3974L53.9164 13.642ZM53.9164 13.642L55.6468 17.3449L55.708 17.4762L55.5651 17.4412L51.264 16.4141L51.3748 16.3937C50.2646 17.1858 49.0394 17.8029 47.742 18.2232C46.4479 18.6516 45.1046 18.9135 43.7443 19.0023C42.3792 19.0976 41.0076 19.028 39.6592 18.7952C38.3098 18.5569 36.9992 18.1357 35.7637 17.5433C34.5169 16.9529 33.3816 16.1513 32.408 15.1739C31.4192 14.1872 30.6878 12.9728 30.2779 11.6374C29.8808 10.2839 29.893 8.84327 30.3129 7.49674C30.7467 6.16893 31.4979 4.967 32.5014 3.99517C33.4939 3.03306 34.6449 2.24929 35.9037 1.6783C37.1454 1.0966 38.461 0.68816 39.8138 0.464416C42.5166 -0.0055517 45.294 0.20709 47.8937 1.08303C49.1903 1.51622 50.4126 2.14607 51.5178 2.95053C52.6333 3.74836 53.5679 4.77249 54.2607 5.95605C54.9532 7.13583 55.29 8.49062 55.2305 9.85733C55.1709 11.224 54.7176 12.5444 53.9252 13.6595L53.9164 13.642Z" fill="#263238"/>
<path d="M32.8252 8.66391C32.8248 8.6343 32.8304 8.60491 32.8415 8.57747C32.8527 8.55003 32.8692 8.52511 32.8901 8.50416C32.9111 8.48322 32.936 8.46669 32.9635 8.45553C32.9909 8.44438 33.0203 8.43884 33.0499 8.43923C33.0798 8.43884 33.1095 8.44435 33.1372 8.45543C33.165 8.46652 33.1903 8.48296 33.2117 8.50382C33.2331 8.52469 33.2502 8.54956 33.262 8.57703C33.2738 8.6045 33.28 8.63402 33.2804 8.66391V11.0858C33.2804 11.116 33.2744 11.1458 33.2628 11.1736C33.2512 11.2014 33.2342 11.2266 33.2127 11.2478C33.1913 11.269 33.1658 11.2857 33.1379 11.297C33.1099 11.3082 33.08 11.3138 33.0499 11.3134C33.0201 11.3134 32.9907 11.3075 32.9632 11.2961C32.9358 11.2846 32.9109 11.2678 32.89 11.2466C32.8691 11.2254 32.8526 11.2003 32.8415 11.1727C32.8304 11.1451 32.8248 11.1156 32.8252 11.0858V8.66391Z" fill="#263238"/>
<path d="M33.9577 9.37006C34.0435 9.3564 34.1211 9.31106 34.1752 9.24299C34.2292 9.17493 34.2557 9.08907 34.2495 9.00239C34.1851 8.98926 34.1269 8.95474 34.0846 8.90442C34.0422 8.8541 34.018 8.79094 34.0161 8.72518V8.68141C34.0148 8.64481 34.0212 8.60834 34.0347 8.57431C34.0482 8.54027 34.0687 8.50941 34.0947 8.48364C34.1207 8.45788 34.1518 8.43779 34.186 8.42462C34.2202 8.41145 34.2567 8.40549 34.2933 8.40712C34.4742 8.40712 34.5851 8.54719 34.5851 8.76895V8.80981C34.5978 9.02332 34.5254 9.23317 34.3837 9.3934C34.2811 9.49736 34.1443 9.5606 33.9986 9.5714C33.9822 9.57352 33.9656 9.57206 33.9498 9.56712C33.9341 9.56217 33.9196 9.55386 33.9074 9.54275C33.8952 9.53165 33.8855 9.51802 33.8791 9.50281C33.8727 9.4876 33.8696 9.47118 33.8702 9.45468C33.8759 9.43403 33.887 9.41528 33.9024 9.4004C33.9178 9.38551 33.9369 9.37504 33.9577 9.37006Z" fill="#263238"/>
<path d="M37.4648 8.66391V11.0858C37.4633 11.1462 37.4384 11.2037 37.3954 11.2461C37.3524 11.2886 37.2947 11.3127 37.2343 11.3134C37.2045 11.3134 37.175 11.3075 37.1476 11.2961C37.1201 11.2846 37.0952 11.2678 37.0743 11.2466C37.0534 11.2254 37.0369 11.2003 37.0258 11.1727C37.0147 11.1451 37.0092 11.1156 37.0096 11.0858V9.35839L36.426 10.1813C36.4052 10.2105 36.3776 10.2343 36.3456 10.2506C36.3135 10.2669 36.2781 10.2751 36.2421 10.2746C36.2054 10.2749 36.1692 10.2665 36.1363 10.2503C36.1034 10.2341 36.0747 10.2105 36.0525 10.1813L35.4689 9.35839V11.0858C35.4689 11.1462 35.4449 11.2041 35.4022 11.2468C35.3595 11.2895 35.3016 11.3134 35.2413 11.3134C35.1809 11.3134 35.123 11.2895 35.0803 11.2468C35.0377 11.2041 35.0137 11.1462 35.0137 11.0858V8.66391C35.0144 8.60456 35.0383 8.54785 35.0803 8.50587C35.1223 8.4639 35.179 8.43998 35.2384 8.43923C35.2733 8.43944 35.3077 8.44803 35.3387 8.46427C35.3697 8.48052 35.3963 8.50395 35.4164 8.5326L36.2334 9.6677L37.0504 8.5326C37.0718 8.50327 37.1 8.47948 37.1325 8.46324C37.1649 8.44699 37.2009 8.43876 37.2372 8.43923C37.2966 8.44067 37.3532 8.46472 37.3955 8.50647C37.4378 8.54822 37.4626 8.60453 37.4648 8.66391Z" fill="#263238"/>
<path d="M39.6008 10.5986C39.6364 10.5573 39.6866 10.5312 39.7409 10.5258C39.7952 10.5203 39.8495 10.536 39.8926 10.5694C40.1126 10.7576 40.3884 10.8683 40.6775 10.8845C40.8603 10.8888 41.0399 10.8358 41.1911 10.7328C41.2422 10.7022 41.285 10.6597 41.316 10.6088C41.347 10.558 41.3652 10.5004 41.3691 10.441C41.369 10.3945 41.3558 10.349 41.3311 10.3097C41.2996 10.2605 41.2578 10.2187 41.2086 10.1871C41.0345 10.0885 40.8435 10.0231 40.6454 9.99455C40.4635 9.96257 40.2862 9.90868 40.1173 9.83406C39.9614 9.76643 39.8286 9.65491 39.735 9.51309C39.6721 9.41246 39.6387 9.29619 39.6387 9.17752C39.6426 9.05847 39.6745 8.94202 39.7318 8.83759C39.7891 8.73317 39.8702 8.64369 39.9684 8.57641C40.1769 8.43315 40.4246 8.35774 40.6775 8.36048C41.0021 8.37723 41.3142 8.49108 41.5733 8.6873C41.6186 8.71917 41.6499 8.76723 41.6608 8.82154C41.6717 8.87585 41.6612 8.93225 41.6317 8.97909C41.6172 9.00298 41.5979 9.02365 41.5751 9.0398C41.5523 9.05594 41.5264 9.06724 41.4991 9.07298C41.4717 9.07873 41.4435 9.0788 41.4161 9.07319C41.3887 9.06758 41.3628 9.05641 41.3399 9.04037C41.1503 8.88854 40.9196 8.79706 40.6775 8.77776C40.5139 8.77556 40.3538 8.82453 40.2194 8.91782C40.1741 8.94512 40.136 8.98301 40.1086 9.02825C40.0812 9.07348 40.0651 9.12471 40.0618 9.17752C40.0597 9.21755 40.0698 9.25727 40.091 9.29132C40.1212 9.33365 40.1588 9.37022 40.2019 9.39928C40.36 9.49173 40.5343 9.55314 40.7154 9.5802C40.9107 9.61334 41.1009 9.67119 41.2815 9.75236C41.4481 9.82518 41.5907 9.94351 41.693 10.0938C41.7567 10.1983 41.79 10.3186 41.7893 10.441C41.7867 10.5661 41.7544 10.6887 41.695 10.7988C41.6357 10.909 41.5509 11.0033 41.4479 11.0742C41.2263 11.2309 40.9605 11.3127 40.6892 11.3076C40.3036 11.291 39.9343 11.1474 39.6387 10.8991C39.5948 10.8636 39.5664 10.8125 39.5593 10.7565C39.5523 10.7005 39.5671 10.6439 39.6008 10.5986Z" fill="#263238"/>
<path d="M44.6956 8.79524C44.9612 9.07596 45.1094 9.44759 45.1099 9.83404C45.1112 10.2208 44.9627 10.5931 44.6956 10.8728C44.5714 11.01 44.4202 11.12 44.2515 11.1958C44.0827 11.2717 43.9001 11.3117 43.7151 11.3135C43.5261 11.3129 43.3392 11.2735 43.166 11.1977C42.9929 11.1219 42.8371 11.0113 42.7084 10.8728C42.444 10.5921 42.2986 10.2197 42.3028 9.83404C42.3001 9.44862 42.4453 9.07683 42.7084 8.79524C42.8373 8.65717 42.9931 8.54706 43.1663 8.47176C43.3395 8.39646 43.5263 8.35759 43.7151 8.35754C43.8999 8.35875 44.0825 8.39826 44.2512 8.4736C44.42 8.54894 44.5713 8.65846 44.6956 8.79524ZM44.6401 9.83404C44.641 9.56848 44.542 9.31228 44.3629 9.11622C44.2813 9.025 44.1815 8.95191 44.07 8.90165C43.9584 8.85139 43.8375 8.82508 43.7151 8.82442C43.59 8.82408 43.4662 8.84985 43.3517 8.9001C43.2371 8.95035 43.1343 9.02396 43.0498 9.11622C42.8644 9.3094 42.76 9.56627 42.758 9.83404C42.7583 10.1013 42.863 10.3578 43.0498 10.5489C43.132 10.6421 43.233 10.7167 43.3462 10.7678C43.4594 10.8189 43.5822 10.8453 43.7064 10.8453C43.8306 10.8453 43.9533 10.8189 44.0665 10.7678C44.1797 10.7167 44.2808 10.6421 44.3629 10.5489C44.5399 10.3586 44.6389 10.1086 44.6401 9.84863V9.83404Z" fill="#263238"/>
<path d="M47.8208 10.972C47.8304 11.0007 47.8342 11.0311 47.8321 11.0613C47.83 11.0915 47.8219 11.121 47.8083 11.1481C47.7948 11.1752 47.776 11.1994 47.7531 11.2193C47.7302 11.2391 47.7036 11.2542 47.6749 11.2638C47.6448 11.267 47.6145 11.267 47.5844 11.2638C47.5275 11.2642 47.4717 11.248 47.4239 11.2171C47.3688 11.1813 47.3236 11.1321 47.2926 11.0741C47.2267 10.9185 47.1978 10.7497 47.208 10.581C47.2073 10.5193 47.1902 10.4588 47.1584 10.4059C47.1267 10.3577 47.0849 10.3168 47.0358 10.2863C46.9646 10.2415 46.8868 10.2081 46.8053 10.1871H46.3209V11.0625C46.3209 11.0926 46.315 11.1224 46.3033 11.1502C46.2917 11.178 46.2747 11.2033 46.2533 11.2244C46.2318 11.2456 46.2064 11.2623 46.1784 11.2736C46.1505 11.2848 46.1206 11.2904 46.0904 11.2901C46.0607 11.2901 46.0312 11.2842 46.0038 11.2727C45.9763 11.2612 45.9514 11.2444 45.9305 11.2232C45.9096 11.202 45.8931 11.1769 45.882 11.1493C45.8709 11.1217 45.8654 11.0922 45.8657 11.0625V8.64054C45.8653 8.61092 45.8709 8.58153 45.882 8.55409C45.8932 8.52666 45.9097 8.50173 45.9307 8.48079C45.9516 8.45984 45.9765 8.44331 46.004 8.43216C46.0314 8.421 46.0608 8.41546 46.0904 8.41585H46.8258C47.0579 8.41585 47.2806 8.50808 47.4448 8.67225C47.6089 8.83642 47.7011 9.05908 47.7011 9.29125C47.7006 9.42031 47.6716 9.54767 47.6161 9.66421C47.5606 9.78074 47.4801 9.88356 47.3802 9.9653C47.4357 10.0078 47.484 10.0591 47.5232 10.117C47.6125 10.2477 47.6603 10.4023 47.6603 10.5606C47.6563 10.6416 47.6612 10.7228 47.6749 10.8028C47.7119 10.8158 47.7448 10.8383 47.7704 10.868C47.796 10.8976 47.8133 10.9335 47.8208 10.972ZM47.2372 9.32043C47.2376 9.26462 47.2269 9.20928 47.2058 9.15761C47.1847 9.10594 47.1536 9.05896 47.1143 9.01936C47.075 8.97976 47.0282 8.94833 46.9767 8.92689C46.9252 8.90544 46.8699 8.8944 46.8141 8.8944H46.3093V9.74061H46.8141C46.8701 9.74178 46.9259 9.73179 46.978 9.71123C47.0302 9.69067 47.0777 9.65995 47.1179 9.62085C47.1581 9.58176 47.1901 9.53506 47.2121 9.48349C47.2341 9.43192 47.2456 9.37649 47.2459 9.32043H47.2372Z" fill="#263238"/>
<path d="M50.3857 10.972C50.3958 11.0006 50.4001 11.0308 50.3983 11.061C50.3966 11.0912 50.3888 11.1208 50.3755 11.1479C50.3622 11.1751 50.3436 11.1994 50.3208 11.2193C50.298 11.2391 50.2715 11.2543 50.2427 11.2638C50.2127 11.2668 50.1824 11.2668 50.1523 11.2638C50.0954 11.2642 50.0396 11.248 49.9918 11.2171C49.9359 11.1822 49.8905 11.1328 49.8605 11.0742C49.7934 10.9188 49.7634 10.75 49.773 10.581C49.7737 10.5191 49.7564 10.4583 49.7234 10.4059C49.6932 10.3564 49.6511 10.3152 49.6008 10.2863C49.5298 10.241 49.452 10.2075 49.3703 10.1871H48.8859V11.0625C48.8859 11.0926 48.8799 11.1225 48.8683 11.1503C48.8567 11.1781 48.8396 11.2033 48.8182 11.2245C48.7968 11.2456 48.7713 11.2623 48.7434 11.2736C48.7154 11.2849 48.6855 11.2905 48.6554 11.2901C48.6256 11.2901 48.5962 11.2842 48.5687 11.2727C48.5413 11.2612 48.5164 11.2444 48.4955 11.2232C48.4746 11.2021 48.4581 11.177 48.4469 11.1494C48.4358 11.1218 48.4303 11.0922 48.4307 11.0625V8.64056C48.4303 8.61095 48.4358 8.58156 48.447 8.55412C48.4581 8.52668 48.4747 8.50176 48.4956 8.48081C48.5166 8.45987 48.5415 8.44334 48.5689 8.43218C48.5964 8.42103 48.6258 8.41549 48.6554 8.41588H49.3907C49.5724 8.41403 49.7501 8.46875 49.8992 8.57243C50.0484 8.67612 50.1616 8.82364 50.2232 8.99455C50.2847 9.16546 50.2916 9.35129 50.2428 9.52628C50.1941 9.70126 50.092 9.85674 49.951 9.97116C50.0065 10.0137 50.0548 10.0649 50.0939 10.1229C50.1825 10.2538 50.2293 10.4084 50.2282 10.5664C50.2247 10.6476 50.2305 10.7288 50.2457 10.8086C50.281 10.8217 50.3123 10.8436 50.3369 10.8722C50.3614 10.9008 50.3782 10.9351 50.3857 10.972ZM49.8021 9.32045C49.8025 9.26464 49.7919 9.20931 49.7708 9.15764C49.7497 9.10597 49.7186 9.05898 49.6792 9.01938C49.6399 8.97978 49.5931 8.94836 49.5416 8.92691C49.4901 8.90547 49.4348 8.89443 49.379 8.89443H48.8742V9.74064H49.379C49.4351 9.7418 49.4908 9.73181 49.543 9.71125C49.5951 9.69069 49.6427 9.65997 49.6828 9.62088C49.723 9.58178 49.755 9.53509 49.777 9.48352C49.799 9.43194 49.8105 9.37651 49.8109 9.32045H49.8021Z" fill="#263238"/>
<path d="M52.9479 8.82436L52.1076 9.99155V11.0975C52.108 11.1275 52.1023 11.1572 52.091 11.185C52.0797 11.2128 52.063 11.2381 52.0418 11.2593C52.0206 11.2805 51.9953 11.2972 51.9675 11.3085C51.9397 11.3198 51.91 11.3255 51.88 11.3251C51.8203 11.3236 51.7636 11.299 51.7217 11.2566C51.6798 11.2141 51.656 11.1571 51.6553 11.0975V9.99155L50.8207 8.82436C50.7859 8.77676 50.7714 8.71728 50.7805 8.659C50.7895 8.60072 50.8213 8.54842 50.8689 8.51359C50.9165 8.47877 50.976 8.46428 51.0342 8.47331C51.0925 8.48234 51.1448 8.51414 51.1797 8.56174L51.88 9.52175L52.5832 8.56174C52.6004 8.53779 52.6222 8.51747 52.6473 8.50194C52.6724 8.48642 52.7003 8.47598 52.7295 8.47124C52.7586 8.4665 52.7884 8.46754 52.8171 8.47431C52.8458 8.48107 52.8729 8.49343 52.8969 8.51068C52.9208 8.52792 52.9412 8.54971 52.9567 8.57481C52.9722 8.5999 52.9826 8.62781 52.9874 8.65694C52.9921 8.68607 52.9911 8.71585 52.9843 8.74457C52.9776 8.7733 52.9652 8.80041 52.9479 8.82436Z" fill="#263238"/>
</svg>
