<svg width="96" height="33" viewBox="0 0 96 33" fill="none" xmlns="http://www.w3.org/2000/svg">
<path d="M32.072 26.36C30.76 26.36 29.608 26.076 28.616 25.508C27.624 24.94 26.848 24.152 26.288 23.144C25.736 22.136 25.46 20.976 25.46 19.664C25.46 18.248 25.732 17.02 26.276 15.98C26.82 14.932 27.576 14.12 28.544 13.544C29.512 12.968 30.632 12.68 31.904 12.68C33.248 12.68 34.388 12.996 35.324 13.628C36.268 14.252 36.968 15.136 37.424 16.28C37.88 17.424 38.052 18.772 37.94 20.324H35.072V19.268C35.064 17.86 34.816 16.832 34.328 16.184C33.84 15.536 33.072 15.212 32.024 15.212C30.84 15.212 29.96 15.58 29.384 16.316C28.808 17.044 28.52 18.112 28.52 19.52C28.52 20.832 28.808 21.848 29.384 22.568C29.96 23.288 30.8 23.648 31.904 23.648C32.616 23.648 33.228 23.492 33.74 23.18C34.26 22.86 34.66 22.4 34.94 21.8L37.796 22.664C37.3 23.832 36.532 24.74 35.492 25.388C34.46 26.036 33.32 26.36 32.072 26.36ZM27.608 20.324V18.14H36.524V20.324H27.608ZM46.5095 26.36C45.1975 26.36 44.0455 26.076 43.0535 25.508C42.0615 24.94 41.2855 24.152 40.7255 23.144C40.1735 22.136 39.8975 20.976 39.8975 19.664C39.8975 18.248 40.1695 17.02 40.7135 15.98C41.2575 14.932 42.0135 14.12 42.9815 13.544C43.9495 12.968 45.0695 12.68 46.3415 12.68C47.6855 12.68 48.8255 12.996 49.7615 13.628C50.7055 14.252 51.4055 15.136 51.8615 16.28C52.3175 17.424 52.4895 18.772 52.3775 20.324H49.5095V19.268C49.5015 17.86 49.2535 16.832 48.7655 16.184C48.2775 15.536 47.5095 15.212 46.4615 15.212C45.2775 15.212 44.3975 15.58 43.8215 16.316C43.2455 17.044 42.9575 18.112 42.9575 19.52C42.9575 20.832 43.2455 21.848 43.8215 22.568C44.3975 23.288 45.2375 23.648 46.3415 23.648C47.0535 23.648 47.6655 23.492 48.1775 23.18C48.6975 22.86 49.0975 22.4 49.3775 21.8L52.2335 22.664C51.7375 23.832 50.9695 24.74 49.9295 25.388C48.8975 26.036 47.7575 26.36 46.5095 26.36ZM42.0455 20.324V18.14H50.9615V20.324H42.0455ZM60.251 26.36C59.059 26.36 58.019 26.06 57.131 25.46C56.243 24.86 55.555 24.044 55.067 23.012C54.579 21.98 54.335 20.816 54.335 19.52C54.335 18.208 54.579 17.04 55.067 16.016C55.563 14.984 56.263 14.172 57.167 13.58C58.071 12.98 59.135 12.68 60.359 12.68C61.591 12.68 62.623 12.98 63.455 13.58C64.295 14.172 64.931 14.984 65.363 16.016C65.795 17.048 66.011 18.216 66.011 19.52C66.011 20.808 65.795 21.972 65.363 23.012C64.931 24.044 64.287 24.86 63.431 25.46C62.575 26.06 61.515 26.36 60.251 26.36ZM60.695 23.768C61.471 23.768 62.095 23.592 62.567 23.24C63.047 22.88 63.395 22.38 63.611 21.74C63.835 21.1 63.947 20.36 63.947 19.52C63.947 18.672 63.835 17.932 63.611 17.3C63.395 16.66 63.055 16.164 62.591 15.812C62.127 15.452 61.527 15.272 60.791 15.272C60.015 15.272 59.375 15.464 58.871 15.848C58.367 16.224 57.995 16.736 57.755 17.384C57.515 18.024 57.395 18.736 57.395 19.52C57.395 20.312 57.511 21.032 57.743 21.68C57.983 22.32 58.347 22.828 58.835 23.204C59.323 23.58 59.943 23.768 60.695 23.768ZM63.947 26V16.904H63.587V8.72H66.503V26H63.947ZM70.9955 26V12.836C70.9955 12.508 71.0075 12.148 71.0315 11.756C71.0555 11.356 71.1235 10.96 71.2355 10.568C71.3475 10.176 71.5515 9.82 71.8475 9.5C72.2155 9.092 72.6115 8.812 73.0355 8.66C73.4675 8.5 73.8915 8.412 74.3075 8.396C74.7235 8.372 75.0875 8.36 75.3995 8.36H77.0195V10.712H75.5195C74.9675 10.712 74.5555 10.852 74.2835 11.132C74.0195 11.404 73.8875 11.764 73.8875 12.212V26H70.9955ZM68.9075 15.308V13.04H77.0195V15.308H68.9075ZM79.5395 11.072V8.42H82.4315V11.072H79.5395ZM79.5395 26V13.04H82.4315V26H79.5395ZM93.6354 26C92.7794 26.16 91.9394 26.228 91.1154 26.204C90.2994 26.188 89.5674 26.04 88.9194 25.76C88.2714 25.472 87.7794 25.02 87.4434 24.404C87.1474 23.844 86.9914 23.272 86.9754 22.688C86.9594 22.104 86.9514 21.444 86.9514 20.708V9.44H89.8314V20.54C89.8314 21.06 89.8354 21.516 89.8434 21.908C89.8594 22.3 89.9434 22.62 90.0954 22.868C90.3834 23.348 90.8434 23.616 91.4754 23.672C92.1074 23.728 92.8274 23.696 93.6354 23.576V26ZM84.5994 15.308V13.04H93.6354V15.308H84.5994Z" fill="black"/>
<rect width="24" height="28" transform="translate(0 5)" fill="#DEF7E8"/>
<path d="M6 29V10H18V13.5889H9.70909V17.7056H16.3636V21.2944H9.70909V29H6Z" fill="#58D68D"/>
</svg>
